<svg width="50" height="50" viewBox="0 0 50 50" fill="none" xmlns="http://www.w3.org/2000/svg">
<path d="M25 8.33337C26.1506 8.33337 27.0834 9.26611 27.0834 10.4167V22.9167H39.5834C40.734 22.9167 41.6667 23.8495 41.6667 25.0001C41.6667 26.1506 40.734 27.0834 39.5834 27.0834H27.0834V39.5834C27.0834 40.734 26.1506 41.6667 25 41.6667C23.8494 41.6667 22.9167 40.734 22.9167 39.5834V27.0834H10.4167C9.26611 27.0834 8.33337 26.1506 8.33337 25.0001C8.33337 23.8495 9.26611 22.9167 10.4167 22.9167H22.9167V10.4167C22.9167 9.26611 23.8494 8.33337 25 8.33337Z" fill="#E7E7E7"/>
</svg>
