<svg width="91" height="20" viewBox="0 0 91 20" fill="none" xmlns="http://www.w3.org/2000/svg">
<path d="M1.904 4.696H4.136V9.112H6.872V10.864H4.136V19H1.904V10.864H0.08V9.112H1.904V4.696ZM12.737 19.24C11.601 19.24 10.625 19.016 9.809 18.568C8.993 18.104 8.361 17.48 7.913 16.696C7.481 15.896 7.265 14.984 7.265 13.96C7.265 12.984 7.513 12.096 8.009 11.296C8.505 10.496 9.169 9.856 10.001 9.376C10.833 8.896 11.761 8.656 12.785 8.656C14.097 8.656 15.185 9.04 16.049 9.808C16.913 10.576 17.497 11.632 17.801 12.976L9.617 15.856L9.089 14.536L15.809 12.088L15.329 12.4C15.137 11.872 14.817 11.416 14.369 11.032C13.921 10.632 13.337 10.432 12.617 10.432C12.009 10.432 11.465 10.584 10.985 10.888C10.505 11.176 10.129 11.576 9.857 12.088C9.585 12.6 9.449 13.184 9.449 13.84C9.449 14.528 9.593 15.136 9.881 15.664C10.169 16.176 10.561 16.584 11.057 16.888C11.569 17.176 12.145 17.32 12.785 17.32C13.217 17.32 13.633 17.24 14.033 17.08C14.449 16.92 14.833 16.712 15.185 16.456L16.217 18.112C15.721 18.448 15.161 18.72 14.537 18.928C13.929 19.136 13.329 19.24 12.737 19.24ZM23.2857 19.24C22.3577 19.24 21.5097 19.04 20.7417 18.64C19.9897 18.24 19.3897 17.656 18.9417 16.888C18.5097 16.104 18.2937 15.152 18.2937 14.032C18.2937 12.928 18.5257 11.976 18.9897 11.176C19.4537 10.36 20.0697 9.736 20.8377 9.304C21.6217 8.872 22.4777 8.656 23.4057 8.656C24.3337 8.656 25.1177 8.872 25.7577 9.304C26.3977 9.72 26.8857 10.216 27.2217 10.792L27.0777 11.176L27.2937 9.064H29.3577V19H27.1257V16.408L27.3657 16.984C27.3017 17.144 27.1577 17.352 26.9337 17.608C26.7257 17.848 26.4377 18.096 26.0697 18.352C25.7177 18.608 25.3097 18.824 24.8457 19C24.3817 19.16 23.8617 19.24 23.2857 19.24ZM23.8857 17.392C24.4457 17.392 24.9497 17.288 25.3977 17.08C25.8457 16.872 26.2137 16.584 26.5017 16.216C26.8057 15.832 27.0137 15.376 27.1257 14.848V12.904C26.9977 12.424 26.7737 12.008 26.4537 11.656C26.1337 11.288 25.7497 11.008 25.3017 10.816C24.8537 10.608 24.3577 10.504 23.8137 10.504C23.2217 10.504 22.6777 10.648 22.1817 10.936C21.6857 11.224 21.2857 11.624 20.9817 12.136C20.6937 12.648 20.5497 13.248 20.5497 13.936C20.5497 14.576 20.7017 15.16 21.0057 15.688C21.3097 16.216 21.7177 16.632 22.2297 16.936C22.7417 17.24 23.2937 17.392 23.8857 17.392ZM33.7723 9.064L33.9643 11.296L33.8683 11.104C34.2363 10.352 34.7563 9.76 35.4283 9.328C36.1163 8.896 36.9003 8.68 37.7803 8.68C38.3403 8.68 38.8363 8.768 39.2683 8.944C39.7003 9.12 40.0523 9.376 40.3243 9.712C40.6123 10.032 40.7963 10.432 40.8763 10.912L40.7563 10.984C41.1403 10.264 41.6683 9.704 42.3403 9.304C43.0283 8.888 43.7483 8.68 44.5003 8.68C45.4763 8.68 46.2443 8.96 46.8043 9.52C47.3803 10.064 47.6763 10.776 47.6923 11.656V19H45.4603V12.448C45.4443 11.936 45.3163 11.512 45.0763 11.176C44.8523 10.824 44.4523 10.632 43.8763 10.6C43.3003 10.6 42.7803 10.776 42.3163 11.128C41.8683 11.48 41.5163 11.936 41.2603 12.496C41.0043 13.04 40.8683 13.632 40.8523 14.272V19H38.6203V12.448C38.6043 11.936 38.4683 11.512 38.2123 11.176C37.9723 10.824 37.5643 10.632 36.9883 10.6C36.3963 10.6 35.8763 10.776 35.4283 11.128C34.9803 11.48 34.6283 11.936 34.3723 12.496C34.1323 13.056 34.0123 13.656 34.0123 14.296V19H31.7803V9.064H33.7723ZM53.5522 19V11.056H51.8482V9.064H53.5522V4.864C53.5522 3.424 53.8722 2.32 54.5122 1.552C55.1682 0.783999 56.1282 0.399999 57.3922 0.399999C57.7282 0.399999 58.0962 0.447999 58.4962 0.543999C58.9122 0.639999 59.2722 0.8 59.5762 1.024L58.6402 2.632C58.4962 2.488 58.3362 2.392 58.1602 2.344C57.9842 2.28 57.8082 2.248 57.6322 2.248C57.0402 2.248 56.5842 2.448 56.2642 2.848C55.9442 3.248 55.7842 3.928 55.7842 4.888V9.064H58.6162V11.056H55.7842V19H53.5522ZM60.5362 0.423999H62.7682V19H60.5362V0.423999ZM64.3541 13.936C64.3541 12.944 64.5861 12.048 65.0501 11.248C65.5301 10.448 66.1861 9.816 67.0181 9.352C67.8501 8.888 68.7941 8.656 69.8501 8.656C70.9381 8.656 71.8901 8.888 72.7061 9.352C73.5221 9.816 74.1541 10.448 74.6021 11.248C75.0501 12.048 75.2741 12.944 75.2741 13.936C75.2741 14.928 75.0501 15.832 74.6021 16.648C74.1541 17.448 73.5141 18.08 72.6821 18.544C71.8661 19.008 70.9141 19.24 69.8261 19.24C68.7701 19.24 67.8261 19.024 66.9941 18.592C66.1781 18.144 65.5301 17.528 65.0501 16.744C64.5861 15.944 64.3541 15.008 64.3541 13.936ZM66.5861 13.96C66.5861 14.6 66.7301 15.184 67.0181 15.712C67.3061 16.224 67.6901 16.632 68.1701 16.936C68.6661 17.24 69.2101 17.392 69.8021 17.392C70.4261 17.392 70.9781 17.24 71.4581 16.936C71.9541 16.632 72.3381 16.224 72.6101 15.712C72.8821 15.184 73.0181 14.6 73.0181 13.96C73.0181 13.32 72.8821 12.744 72.6101 12.232C72.3381 11.704 71.9541 11.288 71.4581 10.984C70.9781 10.664 70.4261 10.504 69.8021 10.504C69.1941 10.504 68.6421 10.664 68.1461 10.984C67.6661 11.304 67.2821 11.728 66.9941 12.256C66.7221 12.768 66.5861 13.336 66.5861 13.96ZM82.9115 9.064L85.8395 15.76L85.4075 15.808L88.1435 9.064H90.3275L85.7675 19.6L82.5755 12.784L79.6715 19.6L75.0635 9.064H77.2475L80.3435 16.072L79.5755 15.928L81.7835 10.792L80.9915 9.064H82.9115Z" fill="#1D2830"/>
<path d="M49.0169 17.728C49.0169 17.376 49.1449 17.08 49.4009 16.84C49.6729 16.584 49.9689 16.456 50.2889 16.456C50.5769 16.456 50.8489 16.584 51.1049 16.84C51.3769 17.08 51.5129 17.376 51.5129 17.728C51.5129 18.112 51.3769 18.424 51.1049 18.664C50.8489 18.888 50.5769 19 50.2889 19C49.9689 19 49.6729 18.888 49.4009 18.664C49.1449 18.424 49.0169 18.112 49.0169 17.728Z" fill="#794CFF"/>
</svg>
